<svg xmlns="http://www.w3.org/2000/svg" xmlns:xlink="http://www.w3.org/1999/xlink" width="500" zoomAndPan="magnify" viewBox="0 0 375 374.999991" height="500" preserveAspectRatio="xMidYMid meet" version="1.0"><defs><clipPath id="fd3e8f6a04"><path d="M 32 26 L 343 26 L 343 338 L 32 338 Z M 32 26 " clip-rule="nonzero"/></clipPath><clipPath id="a8147b09e2"><path d="M 72.792969 -30.578125 L 399.183594 66.417969 L 301.972656 393.53125 L -24.417969 296.535156 Z M 72.792969 -30.578125 " clip-rule="nonzero"/></clipPath><clipPath id="ddb07c1d75"><path d="M 72.792969 -30.578125 L 399.183594 66.417969 L 301.972656 393.53125 L -24.417969 296.535156 Z M 72.792969 -30.578125 " clip-rule="nonzero"/></clipPath><clipPath id="2547e85e85"><path d="M 103 95 L 288 95 L 288 214 L 103 214 Z M 103 95 " clip-rule="nonzero"/></clipPath><clipPath id="7eaf7fca36"><path d="M 72.792969 -30.578125 L 399.183594 66.417969 L 301.972656 393.53125 L -24.417969 296.535156 Z M 72.792969 -30.578125 " clip-rule="nonzero"/></clipPath><clipPath id="e6b33c7670"><path d="M 72.792969 -30.578125 L 399.183594 66.417969 L 301.972656 393.53125 L -24.417969 296.535156 Z M 72.792969 -30.578125 " clip-rule="nonzero"/></clipPath><clipPath id="a98a34c438"><path d="M 121 113 L 270 113 L 270 197 L 121 197 Z M 121 113 " clip-rule="nonzero"/></clipPath><clipPath id="44de9cd6a9"><path d="M 72.792969 -30.578125 L 399.183594 66.417969 L 301.972656 393.53125 L -24.417969 296.535156 Z M 72.792969 -30.578125 " clip-rule="nonzero"/></clipPath><clipPath id="c37f2deaeb"><path d="M 72.792969 -30.578125 L 399.183594 66.417969 L 301.972656 393.53125 L -24.417969 296.535156 Z M 72.792969 -30.578125 " clip-rule="nonzero"/></clipPath><clipPath id="456999cf97"><path d="M 52 149 L 308 149 L 308 265 L 52 265 Z M 52 149 " clip-rule="nonzero"/></clipPath><clipPath id="816695e4c6"><path d="M 72.792969 -30.578125 L 399.183594 66.417969 L 301.972656 393.53125 L -24.417969 296.535156 Z M 72.792969 -30.578125 " clip-rule="nonzero"/></clipPath><clipPath id="c07fc05a19"><path d="M 72.792969 -30.578125 L 399.183594 66.417969 L 301.972656 393.53125 L -24.417969 296.535156 Z M 72.792969 -30.578125 " clip-rule="nonzero"/></clipPath><clipPath id="779f6b92d6"><path d="M 97 184 L 262 184 L 262 257 L 97 257 Z M 97 184 " clip-rule="nonzero"/></clipPath><clipPath id="63c98a74e2"><path d="M 72.792969 -30.578125 L 399.183594 66.417969 L 301.972656 393.53125 L -24.417969 296.535156 Z M 72.792969 -30.578125 " clip-rule="nonzero"/></clipPath><clipPath id="0f13909517"><path d="M 72.792969 -30.578125 L 399.183594 66.417969 L 301.972656 393.53125 L -24.417969 296.535156 Z M 72.792969 -30.578125 " clip-rule="nonzero"/></clipPath></defs><g clip-path="url(#fd3e8f6a04)"><g clip-path="url(#a8147b09e2)"><g clip-path="url(#ddb07c1d75)"><path fill="#ff2d01" d="M 324.003906 107.527344 C 364.835938 182.980469 336.796875 277.335938 261.386719 318.242188 C 185.972656 359.152344 91.800781 331.164062 50.96875 255.710938 C 10.136719 180.257812 38.175781 85.90625 113.585938 44.996094 C 189 4.085938 283.191406 32.015625 324.003906 107.527344 Z M 324.003906 107.527344 " fill-opacity="1" fill-rule="nonzero"/></g></g></g><g clip-path="url(#2547e85e85)"><g clip-path="url(#7eaf7fca36)"><g clip-path="url(#e6b33c7670)"><path fill="#ffffff" d="M 191.382812 153.578125 C 184.3125 177.375 159.308594 190.921875 135.511719 183.851562 C 111.71875 176.777344 98.171875 151.773438 105.242188 127.980469 C 112.3125 104.183594 137.316406 90.636719 161.113281 97.707031 C 184.910156 104.78125 198.457031 129.78125 191.382812 153.578125 Z M 255.347656 125.710938 C 231.550781 118.640625 206.546875 132.1875 199.476562 155.984375 C 192.402344 179.777344 205.949219 204.78125 229.746094 211.855469 C 253.542969 218.925781 278.546875 205.378906 285.617188 181.582031 C 292.6875 157.785156 279.140625 132.785156 255.347656 125.710938 Z M 255.347656 125.710938 " fill-opacity="1" fill-rule="nonzero"/></g></g></g><g clip-path="url(#a98a34c438)"><g clip-path="url(#44de9cd6a9)"><g clip-path="url(#c37f2deaeb)"><path fill="#0395ff" d="M 174.609375 148.59375 C 170.292969 163.109375 155.03125 171.328125 140.578125 167.03125 C 126.121094 162.734375 117.839844 147.457031 122.136719 133 C 126.433594 118.542969 141.714844 110.265625 156.167969 114.5625 C 170.625 118.855469 178.921875 134.078125 174.609375 148.59375 Z M 250.34375 142.546875 C 235.828125 138.234375 220.605469 146.53125 216.3125 160.984375 C 212.015625 175.441406 220.292969 190.722656 234.75 195.019531 C 249.207031 199.3125 264.484375 191.035156 268.78125 176.578125 C 273.078125 162.125 264.859375 146.859375 250.34375 142.546875 Z M 250.34375 142.546875 " fill-opacity="1" fill-rule="nonzero"/></g></g></g><g clip-path="url(#456999cf97)"><g clip-path="url(#816695e4c6)"><g clip-path="url(#c07fc05a19)"><path fill="#ff2d01" d="M 306.445312 244.617188 C 302.058594 259.371094 286.546875 267.773438 271.792969 263.390625 C 257.039062 259.007812 248.636719 243.496094 253.019531 228.742188 C 257.40625 213.988281 272.917969 205.582031 287.671875 209.96875 C 302.425781 214.351562 310.828125 229.863281 306.445312 244.617188 Z M 88.15625 150.613281 C 73.402344 146.226562 57.890625 154.632812 53.507812 169.386719 C 49.125 184.140625 57.527344 199.648438 72.28125 204.035156 C 87.035156 208.417969 102.546875 200.015625 106.929688 185.261719 C 111.296875 170.566406 102.910156 154.996094 88.15625 150.613281 Z M 88.15625 150.613281 " fill-opacity="1" fill-rule="nonzero"/></g></g></g><g clip-path="url(#779f6b92d6)"><g clip-path="url(#63c98a74e2)"><g clip-path="url(#0f13909517)"><path fill="#0395ff" d="M 257.53125 243.417969 C 168.027344 282.277344 117.503906 225.5 98.351562 196.050781 C 94.710938 190.433594 100.054688 183.347656 106.476562 185.257812 L 256.75 229.914062 C 263.195312 231.765625 263.703125 240.722656 257.53125 243.417969 Z M 257.53125 243.417969 " fill-opacity="1" fill-rule="nonzero"/></g></g></g></svg>