<svg xmlns="http://www.w3.org/2000/svg" xmlns:xlink="http://www.w3.org/1999/xlink" width="500" zoomAndPan="magnify" viewBox="0 0 375 374.999991" height="500" preserveAspectRatio="xMidYMid meet" version="1.0"><defs><clipPath id="8857b25363"><path d="M 13 13 L 342 13 L 342 352 L 13 352 Z M 13 13 " clip-rule="nonzero"/></clipPath><clipPath id="3ad56938cd"><path d="M 94.355469 -53.566406 L 440.59375 69.617188 L 333.75 369.929688 L -12.488281 246.742188 Z M 94.355469 -53.566406 " clip-rule="nonzero"/></clipPath><clipPath id="f23cc0f6be"><path d="M 94.355469 -53.566406 L 440.59375 69.617188 L 333.75 369.929688 L -12.488281 246.742188 Z M 94.355469 -53.566406 " clip-rule="nonzero"/></clipPath><clipPath id="974d771e8a"><path d="M 121 140 L 282 140 L 282 248 L 121 248 Z M 121 140 " clip-rule="nonzero"/></clipPath><clipPath id="8be734783b"><path d="M 94.355469 -53.566406 L 440.59375 69.617188 L 333.75 369.929688 L -12.488281 246.742188 Z M 94.355469 -53.566406 " clip-rule="nonzero"/></clipPath><clipPath id="becccbc588"><path d="M 94.355469 -53.566406 L 440.59375 69.617188 L 333.75 369.929688 L -12.488281 246.742188 Z M 94.355469 -53.566406 " clip-rule="nonzero"/></clipPath><clipPath id="fdc82aecc8"><path d="M 75 183 L 296 183 L 296 294 L 75 294 Z M 75 183 " clip-rule="nonzero"/></clipPath><clipPath id="ac1bcd627e"><path d="M 94.355469 -53.566406 L 440.59375 69.617188 L 333.75 369.929688 L -12.488281 246.742188 Z M 94.355469 -53.566406 " clip-rule="nonzero"/></clipPath><clipPath id="87ca0cfff0"><path d="M 94.355469 -53.566406 L 440.59375 69.617188 L 333.75 369.929688 L -12.488281 246.742188 Z M 94.355469 -53.566406 " clip-rule="nonzero"/></clipPath><clipPath id="7c068316b3"><path d="M 136 155 L 266 155 L 266 252 L 136 252 Z M 136 155 " clip-rule="nonzero"/></clipPath><clipPath id="02a84643f2"><path d="M 94.355469 -53.566406 L 440.59375 69.617188 L 333.75 369.929688 L -12.488281 246.742188 Z M 94.355469 -53.566406 " clip-rule="nonzero"/></clipPath><clipPath id="da4d05e7b0"><path d="M 94.355469 -53.566406 L 440.59375 69.617188 L 333.75 369.929688 L -12.488281 246.742188 Z M 94.355469 -53.566406 " clip-rule="nonzero"/></clipPath><clipPath id="08bed1b8cb"><path d="M 153 110 L 286 110 L 286 168 L 153 168 Z M 153 110 " clip-rule="nonzero"/></clipPath><clipPath id="8c5d303f19"><path d="M 94.355469 -53.566406 L 440.59375 69.617188 L 333.75 369.929688 L -12.488281 246.742188 Z M 94.355469 -53.566406 " clip-rule="nonzero"/></clipPath><clipPath id="1295668ff4"><path d="M 94.355469 -53.566406 L 440.59375 69.617188 L 333.75 369.929688 L -12.488281 246.742188 Z M 94.355469 -53.566406 " clip-rule="nonzero"/></clipPath></defs><g clip-path="url(#8857b25363)"><g clip-path="url(#3ad56938cd)"><g clip-path="url(#f23cc0f6be)"><path fill="#ceef32" d="M 214.804688 25.378906 C 244.5 0.0859375 290.367188 16.402344 297.417969 54.769531 L 319.191406 173.226562 L 340.964844 291.679688 C 348.015625 330.046875 310.917969 361.597656 274.171875 348.523438 L 160.761719 308.175781 L 47.289062 267.804688 C 10.542969 254.730469 1.730469 206.773438 31.40625 181.546875 L 123.105469 103.460938 Z M 214.804688 25.378906 " fill-opacity="1" fill-rule="nonzero"/></g></g></g><g clip-path="url(#974d771e8a)"><g clip-path="url(#8be734783b)"><g clip-path="url(#becccbc588)"><path fill="#ffffff" d="M 197.9375 192.617188 C 190.664062 213.0625 168.210938 223.730469 147.769531 216.457031 C 127.324219 209.183594 116.65625 186.730469 123.929688 166.289062 C 131.203125 145.84375 153.65625 135.175781 174.097656 142.449219 C 194.542969 149.722656 205.210938 172.175781 197.9375 192.617188 Z M 255.03125 171.242188 C 234.589844 163.96875 212.132812 174.636719 204.859375 195.082031 C 197.585938 215.523438 208.257812 237.980469 228.699219 245.253906 C 249.144531 252.527344 271.597656 241.855469 278.871094 221.414062 C 286.144531 200.96875 275.476562 178.515625 255.03125 171.242188 Z M 255.03125 171.242188 " fill-opacity="1" fill-rule="nonzero"/></g></g></g><g clip-path="url(#fdc82aecc8)"><g clip-path="url(#ac1bcd627e)"><g clip-path="url(#87ca0cfff0)"><path fill="#ff2d01" d="M 294.078125 277.40625 C 289.570312 290.085938 275.621094 296.710938 262.941406 292.199219 C 250.261719 287.6875 243.636719 273.742188 248.148438 261.0625 C 252.660156 248.382812 266.605469 241.757812 279.285156 246.265625 C 291.964844 250.777344 298.589844 264.722656 294.078125 277.40625 Z M 107.910156 185.296875 C 95.230469 180.785156 81.285156 187.410156 76.773438 200.089844 C 72.261719 212.769531 78.890625 226.71875 91.570312 231.230469 C 104.25 235.738281 118.195312 229.113281 122.707031 216.433594 C 127.21875 203.753906 120.589844 189.808594 107.910156 185.296875 Z M 107.910156 185.296875 " fill-opacity="1" fill-rule="nonzero"/></g></g></g><g clip-path="url(#7c068316b3)"><g clip-path="url(#02a84643f2)"><g clip-path="url(#da4d05e7b0)"><path fill="#0395ff" d="M 183.449219 187.464844 C 179.027344 199.882812 165.324219 206.449219 152.835938 202.007812 C 140.351562 197.566406 133.847656 183.882812 138.292969 171.398438 C 142.734375 158.910156 156.417969 152.410156 168.902344 156.851562 C 181.386719 161.292969 187.867188 175.042969 183.449219 187.464844 Z M 249.875 185.734375 C 237.453125 181.316406 223.707031 187.792969 219.265625 200.277344 C 214.824219 212.765625 221.324219 226.449219 233.808594 230.890625 C 246.296875 235.332031 259.980469 228.832031 264.421875 216.34375 C 268.863281 203.859375 262.363281 190.175781 249.875 185.734375 Z M 185.058594 251.152344 L 214.136719 241.527344 C 218.007812 240.28125 220.089844 236.066406 218.839844 232.195312 C 217.59375 228.328125 213.378906 226.246094 209.511719 227.492188 L 185.875 235.335938 L 172.117188 214.1875 C 169.90625 210.777344 165.296875 209.796875 161.886719 212.007812 C 158.476562 214.21875 157.496094 218.824219 159.707031 222.234375 L 176.496094 248.179688 C 177.378906 249.585938 178.707031 250.570312 180.195312 251.097656 C 181.746094 251.652344 183.417969 251.664062 185.058594 251.152344 Z M 185.058594 251.152344 " fill-opacity="1" fill-rule="nonzero"/></g></g></g><g clip-path="url(#08bed1b8cb)"><g clip-path="url(#8c5d303f19)"><g clip-path="url(#1295668ff4)"><path fill="#0395ff" d="M 275.191406 166.609375 L 158.03125 124.925781 C 154.214844 123.566406 152.214844 119.355469 153.574219 115.539062 C 154.929688 111.722656 159.140625 109.722656 162.957031 111.082031 L 280.117188 152.765625 C 283.933594 154.121094 285.933594 158.332031 284.578125 162.148438 C 283.21875 165.964844 279.074219 167.988281 275.191406 166.609375 Z M 275.191406 166.609375 " fill-opacity="1" fill-rule="nonzero"/></g></g></g></svg>