<svg xmlns="http://www.w3.org/2000/svg" xmlns:xlink="http://www.w3.org/1999/xlink" width="500" zoomAndPan="magnify" viewBox="0 0 375 374.999991" height="500" preserveAspectRatio="xMidYMid meet" version="1.0"><defs><clipPath id="02c514aaec"><path d="M 28 22 L 340 22 L 340 361 L 28 361 Z M 28 22 " clip-rule="nonzero"/></clipPath><clipPath id="65e32b4c9c"><path d="M 53.542969 -1.15625 L 362.140625 49.632812 L 308.550781 375.253906 L -0.046875 324.464844 Z M 53.542969 -1.15625 " clip-rule="nonzero"/></clipPath><clipPath id="430d5b3aaf"><path d="M 53.542969 -1.15625 L 362.140625 49.632812 L 308.550781 375.253906 L -0.046875 324.464844 Z M 53.542969 -1.15625 " clip-rule="nonzero"/></clipPath><clipPath id="cb97fe780b"><path d="M 117 128 L 252 128 L 252 206 L 117 206 Z M 117 128 " clip-rule="nonzero"/></clipPath><clipPath id="1650ad11b9"><path d="M 53.542969 -1.15625 L 362.140625 49.632812 L 308.550781 375.253906 L -0.046875 324.464844 Z M 53.542969 -1.15625 " clip-rule="nonzero"/></clipPath><clipPath id="7ac4d7a69c"><path d="M 53.542969 -1.15625 L 362.140625 49.632812 L 308.550781 375.253906 L -0.046875 324.464844 Z M 53.542969 -1.15625 " clip-rule="nonzero"/></clipPath><clipPath id="c571f3f28e"><path d="M 83 173 L 273 173 L 273 239 L 83 239 Z M 83 173 " clip-rule="nonzero"/></clipPath><clipPath id="3f5af2debd"><path d="M 53.542969 -1.15625 L 362.140625 49.632812 L 308.550781 375.253906 L -0.046875 324.464844 Z M 53.542969 -1.15625 " clip-rule="nonzero"/></clipPath><clipPath id="611bf9fc18"><path d="M 53.542969 -1.15625 L 362.140625 49.632812 L 308.550781 375.253906 L -0.046875 324.464844 Z M 53.542969 -1.15625 " clip-rule="nonzero"/></clipPath><clipPath id="f763d48973"><path d="M 112 189 L 246 189 L 246 241 L 112 241 Z M 112 189 " clip-rule="nonzero"/></clipPath><clipPath id="16ad6055d3"><path d="M 53.542969 -1.15625 L 362.140625 49.632812 L 308.550781 375.253906 L -0.046875 324.464844 Z M 53.542969 -1.15625 " clip-rule="nonzero"/></clipPath><clipPath id="ea73e633e7"><path d="M 53.542969 -1.15625 L 362.140625 49.632812 L 308.550781 375.253906 L -0.046875 324.464844 Z M 53.542969 -1.15625 " clip-rule="nonzero"/></clipPath><clipPath id="daa28980a5"><path d="M 129 141 L 240 141 L 240 193 L 129 193 Z M 129 141 " clip-rule="nonzero"/></clipPath><clipPath id="cdee33b6e2"><path d="M 53.542969 -1.15625 L 362.140625 49.632812 L 308.550781 375.253906 L -0.046875 324.464844 Z M 53.542969 -1.15625 " clip-rule="nonzero"/></clipPath><clipPath id="33201fe89c"><path d="M 53.542969 -1.15625 L 362.140625 49.632812 L 308.550781 375.253906 L -0.046875 324.464844 Z M 53.542969 -1.15625 " clip-rule="nonzero"/></clipPath></defs><g clip-path="url(#02c514aaec)"><g clip-path="url(#65e32b4c9c)"><g clip-path="url(#430d5b3aaf)"><path fill="#ceef32" d="M 284.5 252.347656 C 294.296875 266.539062 298.800781 284.398438 295.785156 302.734375 C 289.582031 340.421875 253.964844 365.972656 216.277344 359.769531 C 187.941406 355.105469 166.5 333.863281 160.253906 307.601562 C 145.640625 329.460938 119.148438 342.074219 91.464844 337.515625 C 53.777344 331.3125 28.230469 295.695312 34.429688 258.011719 C 37.375 240.109375 47.019531 224.949219 60.253906 214.621094 C 37.863281 200.070312 24.9375 173.230469 29.539062 145.253906 C 35.742188 107.570312 71.359375 82.019531 109.046875 88.222656 C 114.84375 89.175781 120.304688 90.816406 125.367188 93.066406 C 125.359375 89.046875 125.582031 84.988281 126.25 80.929688 C 132.453125 43.242188 168.070312 17.691406 205.753906 23.894531 C 243.441406 30.097656 268.992188 65.714844 262.789062 103.398438 C 262.035156 107.964844 260.875 112.316406 259.300781 116.449219 C 266.328125 115.371094 273.632812 115.308594 281.097656 116.535156 C 318.78125 122.738281 344.332031 158.355469 338.128906 196.042969 C 333.324219 224.800781 311.367188 246.496094 284.5 252.347656 Z M 284.5 252.347656 " fill-opacity="1" fill-rule="nonzero"/></g></g></g><g clip-path="url(#cb97fe780b)"><g clip-path="url(#1650ad11b9)"><g clip-path="url(#7ac4d7a69c)"><path fill="#f5f5ef" d="M 181.398438 166.449219 C 178.488281 184.132812 161.789062 196.050781 144.179688 193.152344 C 126.570312 190.253906 114.582031 173.542969 117.480469 155.929688 C 120.378906 138.320312 137.089844 126.332031 154.699219 129.230469 C 172.308594 132.128906 184.296875 148.839844 181.398438 166.449219 Z M 224.636719 140.742188 C 206.953125 137.832031 190.3125 149.832031 187.414062 167.441406 C 184.515625 185.050781 196.503906 201.761719 214.117188 204.660156 C 231.726562 207.558594 248.4375 195.570312 251.335938 177.960938 C 254.234375 160.351562 242.246094 143.640625 224.636719 140.742188 Z M 224.636719 140.742188 " fill-opacity="1" fill-rule="nonzero"/></g></g></g><g clip-path="url(#c571f3f28e)"><g clip-path="url(#3f5af2debd)"><g clip-path="url(#611bf9fc18)"><path fill="#ff7f1d" d="M 271.914062 221.171875 C 270.113281 232.113281 259.734375 239.5625 248.789062 237.761719 C 237.847656 235.960938 230.398438 225.578125 232.199219 214.632812 C 234 203.691406 244.382812 196.246094 255.324219 198.046875 C 266.269531 199.847656 273.714844 210.226562 271.914062 221.171875 Z M 107.179688 173.738281 C 96.234375 171.9375 85.855469 179.382812 84.054688 190.328125 C 82.253906 201.269531 89.699219 211.652344 100.644531 213.453125 C 111.585938 215.253906 121.96875 207.808594 123.769531 196.863281 C 125.582031 185.847656 118.195312 175.550781 107.179688 173.738281 Z M 107.179688 173.738281 " fill-opacity="1" fill-rule="nonzero"/></g></g></g><g clip-path="url(#f763d48973)"><g clip-path="url(#16ad6055d3)"><g clip-path="url(#ea73e633e7)"><path fill="#0395ff" d="M 174.207031 239.109375 C 144.636719 234.242188 123.9375 214.382812 113.902344 202.535156 C 111.09375 199.246094 111.53125 194.328125 114.820312 191.519531 C 118.113281 188.710938 123.027344 189.148438 125.835938 192.441406 C 143.097656 212.847656 179.996094 242.367188 234.109375 210.261719 C 237.824219 208.042969 242.609375 209.277344 244.828125 212.992188 C 247.042969 216.707031 245.808594 221.488281 242.09375 223.707031 C 216.09375 239.226562 193.265625 242.246094 174.207031 239.109375 Z M 174.207031 239.109375 " fill-opacity="1" fill-rule="nonzero"/></g></g></g><g clip-path="url(#daa28980a5)"><g clip-path="url(#cdee33b6e2)"><g clip-path="url(#33201fe89c)"><path fill="#0395ff" d="M 168.863281 164.386719 C 167.097656 175.113281 156.957031 182.453125 146.160156 180.675781 C 135.433594 178.910156 128.09375 168.769531 129.871094 157.972656 C 131.648438 147.171875 141.777344 139.90625 152.574219 141.683594 C 163.375 143.460938 170.628906 153.660156 168.863281 164.386719 Z M 222.582031 153.207031 C 211.859375 151.441406 201.65625 158.695312 199.878906 169.492188 C 198.101562 180.292969 205.367188 190.417969 216.167969 192.195312 C 226.894531 193.960938 237.09375 186.707031 238.871094 175.910156 C 240.648438 165.109375 233.308594 154.972656 222.582031 153.207031 Z M 222.582031 153.207031 " fill-opacity="1" fill-rule="nonzero"/></g></g></g></svg>