<svg xmlns="http://www.w3.org/2000/svg" xmlns:xlink="http://www.w3.org/1999/xlink" width="500" zoomAndPan="magnify" viewBox="0 0 375 374.999991" height="500" preserveAspectRatio="xMidYMid meet" version="1.0"><defs><clipPath id="5791446835"><path d="M 43 14 L 320 14 L 320 361 L 43 361 Z M 43 14 " clip-rule="nonzero"/></clipPath><clipPath id="4406eea498"><path d="M 9.972656 63.300781 L 228.054688 -19.429688 L 353.617188 311.550781 L 135.53125 394.285156 Z M 9.972656 63.300781 " clip-rule="nonzero"/></clipPath><clipPath id="15505c8b94"><path d="M 9.972656 63.300781 L 228.054688 -19.429688 L 353.617188 311.550781 L 135.53125 394.285156 Z M 9.972656 63.300781 " clip-rule="nonzero"/></clipPath><clipPath id="dee84b0622"><path d="M 75 92 L 251 92 L 251 184 L 75 184 Z M 75 92 " clip-rule="nonzero"/></clipPath><clipPath id="cc8368f5f9"><path d="M 9.972656 63.300781 L 228.054688 -19.429688 L 353.617188 311.550781 L 135.53125 394.285156 Z M 9.972656 63.300781 " clip-rule="nonzero"/></clipPath><clipPath id="493a0e43aa"><path d="M 9.972656 63.300781 L 228.054688 -19.429688 L 353.617188 311.550781 L 135.53125 394.285156 Z M 9.972656 63.300781 " clip-rule="nonzero"/></clipPath><clipPath id="7fe4bb5479"><path d="M 92 75 L 208 75 L 208 156 L 92 156 Z M 92 75 " clip-rule="nonzero"/></clipPath><clipPath id="04c0609178"><path d="M 9.972656 63.300781 L 228.054688 -19.429688 L 353.617188 311.550781 L 135.53125 394.285156 Z M 9.972656 63.300781 " clip-rule="nonzero"/></clipPath><clipPath id="179c13a24a"><path d="M 9.972656 63.300781 L 228.054688 -19.429688 L 353.617188 311.550781 L 135.53125 394.285156 Z M 9.972656 63.300781 " clip-rule="nonzero"/></clipPath></defs><g clip-path="url(#5791446835)"><g clip-path="url(#4406eea498)"><g clip-path="url(#15505c8b94)"><path fill="#ffb72c" d="M 244.371094 352.683594 C 184.480469 375.402344 116.820312 344.960938 94.101562 285.066406 L 51.429688 172.582031 C 28.707031 112.691406 59.148438 45.03125 119.042969 22.3125 C 178.9375 -0.410156 246.59375 30.03125 269.316406 89.925781 L 311.988281 202.410156 C 334.707031 262.304688 304.265625 329.960938 244.371094 352.683594 Z M 244.371094 352.683594 " fill-opacity="1" fill-rule="nonzero"/></g></g></g><g clip-path="url(#dee84b0622)"><g clip-path="url(#cc8368f5f9)"><g clip-path="url(#493a0e43aa)"><path fill="#ff78e5" d="M 249.367188 105.171875 C 253.199219 115.277344 248.117188 126.570312 238.011719 130.40625 C 227.90625 134.238281 216.613281 129.15625 212.78125 119.050781 C 208.945312 108.945312 214.027344 97.652344 224.132812 93.820312 C 234.238281 89.984375 245.53125 95.066406 249.367188 105.171875 Z M 87.75 145.558594 C 77.644531 149.390625 72.5625 160.683594 76.398438 170.789062 C 80.230469 180.894531 91.523438 185.976562 101.628906 182.140625 C 111.734375 178.308594 116.789062 166.941406 112.984375 156.910156 C 109.175781 146.878906 97.855469 141.722656 87.75 145.558594 Z M 87.75 145.558594 " fill-opacity="1" fill-rule="nonzero"/></g></g></g><g clip-path="url(#7fe4bb5479)"><g clip-path="url(#04c0609178)"><g clip-path="url(#179c13a24a)"><path fill="#0395ff" d="M 127 132.691406 C 112.761719 138.09375 97.902344 129.386719 96.261719 128.40625 C 92.21875 125.976562 90.980469 120.707031 93.484375 116.636719 C 95.945312 112.664062 101.183594 111.351562 105.226562 113.785156 C 107.632812 115.234375 115.746094 118.820312 121.148438 116.601562 C 124.585938 115.214844 127.101562 111.390625 128.769531 105.105469 C 129.980469 100.511719 134.613281 97.828125 139.207031 99.039062 C 143.800781 100.246094 146.484375 104.882812 145.277344 109.476562 C 141.378906 124.117188 133.433594 130.082031 127.414062 132.453125 C 127.367188 132.554688 127.148438 132.636719 127 132.691406 Z M 189.105469 109.132812 C 195.097656 106.691406 203.070312 100.796875 206.96875 86.15625 C 208.175781 81.5625 205.417969 76.957031 200.898438 75.71875 C 196.304688 74.507812 191.671875 77.195312 190.460938 81.789062 C 188.839844 87.972656 186.277344 91.894531 182.839844 93.285156 C 177.363281 95.53125 169.324219 91.914062 166.921875 90.464844 C 162.875 88.03125 157.683594 89.242188 155.175781 93.316406 C 152.746094 97.359375 153.984375 102.628906 157.953125 105.085938 C 159.621094 106.144531 174.453125 114.773438 188.691406 109.375 C 188.808594 109.246094 188.957031 109.1875 189.105469 109.132812 Z M 169.894531 153.460938 C 175.886719 151.019531 183.859375 145.125 187.753906 130.484375 C 188.964844 125.890625 186.207031 121.285156 181.6875 120.046875 C 177.09375 118.835938 172.457031 121.523438 171.246094 126.117188 C 169.628906 132.300781 167.066406 136.222656 163.628906 137.613281 C 158.226562 139.832031 150.113281 136.242188 147.707031 134.792969 C 143.664062 132.363281 138.46875 133.574219 135.964844 137.644531 C 133.535156 141.6875 134.773438 146.957031 138.742188 149.417969 C 140.410156 150.472656 155.242188 159.105469 169.480469 153.703125 C 169.597656 153.574219 169.746094 153.519531 169.894531 153.460938 Z M 169.894531 153.460938 " fill-opacity="1" fill-rule="nonzero"/></g></g></g></svg>