<svg xmlns="http://www.w3.org/2000/svg" xmlns:xlink="http://www.w3.org/1999/xlink" width="500" zoomAndPan="magnify" viewBox="0 0 375 374.999991" height="500" preserveAspectRatio="xMidYMid meet" version="1.0"><defs><clipPath id="4730ccdf19"><path d="M 37 25 L 347 25 L 347 336 L 37 336 Z M 37 25 " clip-rule="nonzero"/></clipPath><clipPath id="ebf54a58e2"><path d="M -48.542969 105.667969 L 266.78125 -60.121094 L 432.566406 255.203125 L 117.242188 420.992188 Z M -48.542969 105.667969 " clip-rule="nonzero"/></clipPath><clipPath id="5a35160df4"><path d="M -48.542969 105.667969 L 266.78125 -60.121094 L 432.566406 255.203125 L 117.242188 420.992188 Z M -48.542969 105.667969 " clip-rule="nonzero"/></clipPath><clipPath id="5e7f801ce3"><path d="M 109 109 L 258 109 L 258 219 L 109 219 Z M 109 109 " clip-rule="nonzero"/></clipPath><clipPath id="0414fd331e"><path d="M -48.542969 105.667969 L 266.78125 -60.121094 L 432.566406 255.203125 L 117.242188 420.992188 Z M -48.542969 105.667969 " clip-rule="nonzero"/></clipPath><clipPath id="1529204aad"><path d="M -48.542969 105.667969 L 266.78125 -60.121094 L 432.566406 255.203125 L 117.242188 420.992188 Z M -48.542969 105.667969 " clip-rule="nonzero"/></clipPath><clipPath id="50afc45c2e"><path d="M 105 136 L 297 136 L 297 258 L 105 258 Z M 105 136 " clip-rule="nonzero"/></clipPath><clipPath id="b23e0b4b3e"><path d="M -48.542969 105.667969 L 266.78125 -60.121094 L 432.566406 255.203125 L 117.242188 420.992188 Z M -48.542969 105.667969 " clip-rule="nonzero"/></clipPath><clipPath id="aae7f85746"><path d="M -48.542969 105.667969 L 266.78125 -60.121094 L 432.566406 255.203125 L 117.242188 420.992188 Z M -48.542969 105.667969 " clip-rule="nonzero"/></clipPath><clipPath id="e98172ac26"><path d="M 121 121 L 246 121 L 246 207 L 121 207 Z M 121 121 " clip-rule="nonzero"/></clipPath><clipPath id="c0b59d2fb2"><path d="M -48.542969 105.667969 L 266.78125 -60.121094 L 432.566406 255.203125 L 117.242188 420.992188 Z M -48.542969 105.667969 " clip-rule="nonzero"/></clipPath><clipPath id="afcb261b55"><path d="M -48.542969 105.667969 L 266.78125 -60.121094 L 432.566406 255.203125 L 117.242188 420.992188 Z M -48.542969 105.667969 " clip-rule="nonzero"/></clipPath><clipPath id="9710a1dac4"><path d="M 162 164 L 231 164 L 231 211 L 162 211 Z M 162 164 " clip-rule="nonzero"/></clipPath><clipPath id="04b96ecdb6"><path d="M -48.542969 105.667969 L 266.78125 -60.121094 L 432.566406 255.203125 L 117.242188 420.992188 Z M -48.542969 105.667969 " clip-rule="nonzero"/></clipPath><clipPath id="b34b642fe1"><path d="M -48.542969 105.667969 L 266.78125 -60.121094 L 432.566406 255.203125 L 117.242188 420.992188 Z M -48.542969 105.667969 " clip-rule="nonzero"/></clipPath></defs><g clip-path="url(#4730ccdf19)"><g clip-path="url(#ebf54a58e2)"><g clip-path="url(#5a35160df4)"><path fill="#ff78e5" d="M 346 106.101562 L 288.988281 321.277344 C 286.351562 331.253906 276.09375 337.179688 266.117188 334.542969 L 50.941406 277.53125 C 40.964844 274.894531 35.039062 264.636719 37.675781 254.660156 L 94.6875 39.484375 C 97.324219 29.507812 107.582031 23.582031 117.558594 26.21875 L 332.734375 83.230469 C 342.710938 85.867188 348.636719 96.125 346 106.101562 Z M 346 106.101562 " fill-opacity="1" fill-rule="nonzero"/></g></g></g><g clip-path="url(#5e7f801ce3)"><g clip-path="url(#0414fd331e)"><g clip-path="url(#1529204aad)"><path fill="#ffffff" d="M 167.136719 173.75 C 175.019531 188.738281 169.222656 207.195312 154.304688 215.039062 C 139.386719 222.882812 120.859375 217.125 113.015625 202.207031 C 105.171875 187.285156 110.929688 168.757812 125.847656 160.914062 C 140.765625 153.070312 159.257812 158.761719 167.136719 173.75 Z M 212.40625 113.457031 C 197.417969 121.335938 191.730469 139.828125 199.574219 154.746094 C 207.417969 169.664062 225.945312 175.425781 240.863281 167.582031 C 255.78125 159.738281 261.539062 141.210938 253.695312 126.292969 C 245.851562 111.371094 227.394531 105.578125 212.40625 113.457031 Z M 212.40625 113.457031 " fill-opacity="1" fill-rule="nonzero"/></g></g></g><g clip-path="url(#50afc45c2e)"><g clip-path="url(#b23e0b4b3e)"><g clip-path="url(#aae7f85746)"><path fill="#ceef32" d="M 293.886719 147.140625 C 298.777344 156.441406 295.222656 167.875 285.925781 172.761719 C 276.625 177.652344 265.191406 174.097656 260.304688 164.800781 C 255.414062 155.5 258.96875 144.066406 268.265625 139.179688 C 277.457031 134.257812 289 137.84375 293.886719 147.140625 Z M 115.40625 221.40625 C 106.105469 226.296875 102.554688 237.730469 107.441406 247.027344 C 112.332031 256.328125 123.765625 259.882812 133.0625 254.992188 C 142.359375 250.105469 145.914062 238.667969 141.027344 229.371094 C 136.136719 220.074219 124.703125 216.519531 115.40625 221.40625 Z M 115.40625 221.40625 " fill-opacity="1" fill-rule="nonzero"/></g></g></g><g clip-path="url(#e98172ac26)"><g clip-path="url(#c0b59d2fb2)"><g clip-path="url(#afcb261b55)"><path fill="#0395ff" d="M 156.589844 179.292969 C 161.371094 188.382812 157.847656 199.710938 148.757812 204.492188 C 139.667969 209.269531 128.339844 205.75 123.5625 196.660156 C 118.78125 187.570312 122.304688 176.242188 131.394531 171.460938 C 140.484375 166.683594 151.777344 170.136719 156.589844 179.292969 Z M 217.953125 124.003906 C 208.863281 128.785156 205.339844 140.113281 210.121094 149.203125 C 214.898438 158.292969 226.226562 161.8125 235.316406 157.035156 C 244.40625 152.253906 247.929688 140.925781 243.148438 131.835938 C 238.371094 122.746094 227.042969 119.226562 217.953125 124.003906 Z M 217.953125 124.003906 " fill-opacity="1" fill-rule="nonzero"/></g></g></g><g clip-path="url(#9710a1dac4)"><g clip-path="url(#04b96ecdb6)"><g clip-path="url(#b34b642fe1)"><path fill="#0395ff" d="M 206.257812 205.703125 C 205.632812 206.03125 205.007812 206.359375 204.347656 206.617188 C 186.25 214.984375 167.46875 207.054688 166.691406 206.757812 C 162.902344 205.113281 161.09375 200.664062 162.734375 196.878906 C 164.375 193.09375 168.828125 191.28125 172.613281 192.925781 C 172.933594 193.023438 186.265625 198.5 198.144531 192.964844 C 205.957031 189.296875 211.726562 181.570312 215.378906 169.820312 C 216.628906 165.796875 220.792969 163.605469 224.816406 164.859375 C 228.839844 166.109375 231.027344 170.269531 229.777344 174.292969 C 225.140625 189.398438 217.222656 199.9375 206.257812 205.703125 Z M 206.257812 205.703125 " fill-opacity="1" fill-rule="nonzero"/></g></g></g></svg>