<svg xmlns="http://www.w3.org/2000/svg" xmlns:xlink="http://www.w3.org/1999/xlink" width="500" zoomAndPan="magnify" viewBox="0 0 375 374.999991" height="500" preserveAspectRatio="xMidYMid meet" version="1.0"><defs><clipPath id="87dd8bda7b"><path d="M 54 12 L 317 12 L 317 357 L 54 357 Z M 54 12 " clip-rule="nonzero"/></clipPath><clipPath id="b412f1dd08"><path d="M 122.660156 -14.320312 L 343.523438 48.046875 L 248.75 383.675781 L 27.886719 321.308594 Z M 122.660156 -14.320312 " clip-rule="nonzero"/></clipPath><clipPath id="c3764b7b2b"><path d="M 122.660156 -14.320312 L 343.523438 48.046875 L 248.75 383.675781 L 27.886719 321.308594 Z M 122.660156 -14.320312 " clip-rule="nonzero"/></clipPath><clipPath id="567f0714aa"><path d="M 111 95 L 289 95 L 289 174 L 111 174 Z M 111 95 " clip-rule="nonzero"/></clipPath><clipPath id="fd653e5007"><path d="M 122.660156 -14.320312 L 343.523438 48.046875 L 248.75 383.675781 L 27.886719 321.308594 Z M 122.660156 -14.320312 " clip-rule="nonzero"/></clipPath><clipPath id="f20d160614"><path d="M 122.660156 -14.320312 L 343.523438 48.046875 L 248.75 383.675781 L 27.886719 321.308594 Z M 122.660156 -14.320312 " clip-rule="nonzero"/></clipPath><clipPath id="c14f32da15"><path d="M 152 76 L 269 76 L 269 152 L 152 152 Z M 152 76 " clip-rule="nonzero"/></clipPath><clipPath id="e3335c3148"><path d="M 122.660156 -14.320312 L 343.523438 48.046875 L 248.75 383.675781 L 27.886719 321.308594 Z M 122.660156 -14.320312 " clip-rule="nonzero"/></clipPath><clipPath id="2df8a2339d"><path d="M 122.660156 -14.320312 L 343.523438 48.046875 L 248.75 383.675781 L 27.886719 321.308594 Z M 122.660156 -14.320312 " clip-rule="nonzero"/></clipPath></defs><g clip-path="url(#87dd8bda7b)"><g clip-path="url(#b412f1dd08)"><g clip-path="url(#c3764b7b2b)"><path fill="#ff2d01" d="M 138.425781 352.058594 C 77.722656 334.917969 42.046875 271.164062 59.1875 210.460938 L 91.378906 96.449219 C 108.523438 35.746094 172.277344 0.0703125 232.980469 17.210938 C 293.6875 34.351562 329.363281 98.105469 312.222656 158.8125 L 280.027344 272.820312 C 262.886719 333.523438 199.132812 369.203125 138.425781 352.058594 Z M 138.425781 352.058594 " fill-opacity="1" fill-rule="nonzero"/></g></g></g><g clip-path="url(#567f0714aa)"><g clip-path="url(#fd653e5007)"><g clip-path="url(#f20d160614)"><path fill="#05a552" d="M 287.5 159.175781 C 284.605469 169.417969 273.964844 175.371094 263.722656 172.480469 C 253.480469 169.589844 247.527344 158.945312 250.417969 148.703125 C 253.308594 138.460938 263.953125 132.507812 274.195312 135.398438 C 284.4375 138.292969 290.390625 148.933594 287.5 159.175781 Z M 135.960938 96.367188 C 125.71875 93.472656 115.078125 99.429688 112.1875 109.671875 C 109.292969 119.914062 115.25 130.554688 125.492188 133.445312 C 135.734375 136.339844 146.394531 130.308594 149.265625 120.140625 C 152.136719 109.976562 146.203125 99.257812 135.960938 96.367188 Z M 135.960938 96.367188 " fill-opacity="1" fill-rule="nonzero"/></g></g></g><g clip-path="url(#c14f32da15)"><g clip-path="url(#e3335c3148)"><g clip-path="url(#2df8a2339d)"><path fill="#ffffff" d="M 174.554688 109.199219 C 160.125 105.125 153.472656 89.527344 152.753906 87.789062 C 150.980469 83.492188 153.085938 78.601562 157.457031 76.847656 C 161.730469 75.148438 166.644531 77.179688 168.417969 81.476562 C 169.472656 84.035156 173.785156 91.628906 179.359375 93.042969 C 182.894531 93.960938 187.125 92.410156 192.128906 88.414062 C 195.78125 85.488281 201.023438 86.082031 203.945312 89.734375 C 206.871094 93.382812 206.277344 98.625 202.628906 101.550781 C 190.960938 110.847656 181.175781 110.910156 175.023438 109.253906 C 174.929688 109.308594 174.703125 109.242188 174.554688 109.199219 Z M 237.503906 126.976562 C 243.675781 128.558594 253.4375 128.570312 265.105469 119.273438 C 268.757812 116.347656 269.273438 111.085938 266.425781 107.457031 C 263.5 103.804688 258.257812 103.210938 254.609375 106.136719 C 249.699219 110.078125 245.375 111.683594 241.839844 110.765625 C 236.1875 109.332031 231.949219 101.757812 230.898438 99.199219 C 229.125 94.90625 224.304688 92.816406 219.933594 94.570312 C 215.640625 96.34375 213.53125 101.238281 215.230469 105.511719 C 215.929688 107.324219 222.605469 122.851562 237.035156 126.925781 C 237.203125 126.890625 237.355469 126.933594 237.503906 126.976562 Z M 196.3125 150.78125 C 202.484375 152.363281 212.25 152.375 223.914062 143.078125 C 227.566406 140.152344 228.082031 134.890625 225.234375 131.261719 C 222.308594 127.609375 217.070312 127.019531 213.417969 129.941406 C 208.511719 133.882812 204.183594 135.488281 200.648438 134.570312 C 195.074219 133.15625 190.761719 125.5625 189.707031 123.003906 C 187.933594 118.710938 183.113281 116.621094 178.746094 118.375 C 174.449219 120.148438 172.34375 125.042969 174.042969 129.316406 C 174.742188 131.128906 181.414062 146.65625 195.84375 150.730469 C 196.015625 150.695312 196.164062 150.738281 196.3125 150.78125 Z M 196.3125 150.78125 " fill-opacity="1" fill-rule="nonzero"/></g></g></g></svg>