<svg xmlns="http://www.w3.org/2000/svg" xmlns:xlink="http://www.w3.org/1999/xlink" width="500" zoomAndPan="magnify" viewBox="0 0 375 374.999991" height="500" preserveAspectRatio="xMidYMid meet" version="1.0"><defs><clipPath id="68a893736e"><path d="M 36 8 L 344 8 L 344 338 L 36 338 Z M 36 8 " clip-rule="nonzero"/></clipPath><clipPath id="9a2ce4751d"><path d="M -6.285156 60.746094 L 281.300781 -37.023438 L 384.382812 266.183594 L 96.796875 363.953125 Z M -6.285156 60.746094 " clip-rule="nonzero"/></clipPath><clipPath id="7f932ae01f"><path d="M -6.285156 60.746094 L 281.300781 -37.023438 L 384.382812 266.183594 L 96.796875 363.953125 Z M -6.285156 60.746094 " clip-rule="nonzero"/></clipPath><clipPath id="221f411f6c"><path d="M 118 102 L 247 102 L 247 188 L 118 188 Z M 118 102 " clip-rule="nonzero"/></clipPath><clipPath id="0a01c63122"><path d="M -6.285156 60.746094 L 281.300781 -37.023438 L 384.382812 266.183594 L 96.796875 363.953125 Z M -6.285156 60.746094 " clip-rule="nonzero"/></clipPath><clipPath id="f63e5a63f6"><path d="M -6.285156 60.746094 L 281.300781 -37.023438 L 384.382812 266.183594 L 96.796875 363.953125 Z M -6.285156 60.746094 " clip-rule="nonzero"/></clipPath><clipPath id="77789a42a6"><path d="M 106 137 L 284 137 L 284 225 L 106 225 Z M 106 137 " clip-rule="nonzero"/></clipPath><clipPath id="c58f69a7cd"><path d="M -6.285156 60.746094 L 281.300781 -37.023438 L 384.382812 266.183594 L 96.796875 363.953125 Z M -6.285156 60.746094 " clip-rule="nonzero"/></clipPath><clipPath id="d95ff5bfa2"><path d="M -6.285156 60.746094 L 281.300781 -37.023438 L 384.382812 266.183594 L 96.796875 363.953125 Z M -6.285156 60.746094 " clip-rule="nonzero"/></clipPath><clipPath id="d37d28399a"><path d="M 133 155 L 260 155 L 260 216 L 133 216 Z M 133 155 " clip-rule="nonzero"/></clipPath><clipPath id="5ded51eee3"><path d="M -6.285156 60.746094 L 281.300781 -37.023438 L 384.382812 266.183594 L 96.796875 363.953125 Z M -6.285156 60.746094 " clip-rule="nonzero"/></clipPath><clipPath id="564c7f9ce2"><path d="M -6.285156 60.746094 L 281.300781 -37.023438 L 384.382812 266.183594 L 96.796875 363.953125 Z M -6.285156 60.746094 " clip-rule="nonzero"/></clipPath><clipPath id="0eb18be7ea"><path d="M 130 114 L 235 114 L 235 176 L 130 176 Z M 130 114 " clip-rule="nonzero"/></clipPath><clipPath id="f5221f9d54"><path d="M -6.285156 60.746094 L 281.300781 -37.023438 L 384.382812 266.183594 L 96.796875 363.953125 Z M -6.285156 60.746094 " clip-rule="nonzero"/></clipPath><clipPath id="860f224b51"><path d="M -6.285156 60.746094 L 281.300781 -37.023438 L 384.382812 266.183594 L 96.796875 363.953125 Z M -6.285156 60.746094 " clip-rule="nonzero"/></clipPath></defs><g clip-path="url(#68a893736e)"><g clip-path="url(#9a2ce4751d)"><g clip-path="url(#7f932ae01f)"><path fill="#05a552" d="M 307.636719 172.171875 C 322.527344 179.847656 334.566406 193.085938 340.375 210.175781 C 352.316406 245.300781 333.5 283.496094 298.378906 295.4375 C 271.964844 304.414062 243.871094 296.03125 226.496094 276.394531 C 223.984375 301.8125 207.066406 324.746094 181.261719 333.515625 C 146.140625 345.457031 107.941406 326.644531 96.003906 291.519531 C 90.332031 274.835938 91.648438 257.433594 98.257812 242.527344 C 72.414062 240.3125 49.050781 223.234375 40.1875 197.164062 C 28.246094 162.039062 47.058594 123.84375 82.183594 111.902344 C 87.589844 110.066406 93.019531 108.972656 98.386719 108.578125 C 96.539062 105.136719 94.871094 101.5625 93.585938 97.777344 C 81.644531 62.652344 100.457031 24.457031 135.582031 12.515625 C 170.707031 0.578125 208.902344 19.390625 220.84375 54.515625 C 222.289062 58.769531 223.285156 63.027344 223.828125 67.289062 C 229.355469 63.148438 235.582031 59.75 242.542969 57.386719 C 277.664062 45.445312 315.859375 64.257812 327.800781 99.382812 C 336.851562 126.222656 327.976562 154.859375 307.636719 172.171875 Z M 307.636719 172.171875 " fill-opacity="1" fill-rule="nonzero"/></g></g></g><g clip-path="url(#221f411f6c)"><g clip-path="url(#0a01c63122)"><g clip-path="url(#f63e5a63f6)"><path fill="#f5f5ef" d="M 179.988281 145.792969 C 185.589844 162.273438 176.738281 180.128906 160.324219 185.707031 C 143.910156 191.289062 125.992188 182.460938 120.410156 166.046875 C 114.832031 149.632812 123.65625 131.710938 140.070312 126.132812 C 156.484375 120.550781 174.40625 129.378906 179.988281 145.792969 Z M 205.253906 103.972656 C 188.773438 109.574219 180.011719 127.472656 185.59375 143.886719 C 191.171875 160.300781 209.09375 169.128906 225.507812 163.546875 C 241.921875 157.96875 250.75 140.046875 245.167969 123.632812 C 239.589844 107.21875 221.667969 98.390625 205.253906 103.972656 Z M 205.253906 103.972656 " fill-opacity="1" fill-rule="nonzero"/></g></g></g><g clip-path="url(#77789a42a6)"><g clip-path="url(#c58f69a7cd)"><g clip-path="url(#d95ff5bfa2)"><path fill="#05a552" d="M 282.582031 151.226562 C 286.050781 161.425781 280.566406 172.558594 270.367188 176.027344 C 260.167969 179.496094 249.035156 174.011719 245.566406 163.8125 C 242.097656 153.613281 247.582031 142.480469 257.78125 139.011719 C 267.980469 135.542969 279.113281 141.027344 282.582031 151.226562 Z M 119.738281 186.019531 C 109.539062 189.484375 104.054688 200.617188 107.523438 210.816406 C 110.992188 221.015625 122.125 226.5 132.324219 223.035156 C 142.523438 219.566406 148.007812 208.433594 144.539062 198.234375 C 141.050781 187.964844 130.007812 182.527344 119.738281 186.019531 Z M 119.738281 186.019531 " fill-opacity="1" fill-rule="nonzero"/></g></g></g><g clip-path="url(#d37d28399a)"><g clip-path="url(#5ded51eee3)"><g clip-path="url(#564c7f9ce2)"><path fill="#ff2d01" d="M 207.089844 211.328125 C 179.53125 220.699219 152.707031 213.164062 138.683594 207.609375 C 134.773438 206.074219 132.894531 201.664062 134.429688 197.753906 C 135.960938 193.839844 140.375 191.964844 144.285156 193.496094 C 168.414062 203.078125 213.542969 211.472656 245.199219 159.1875 C 247.367188 155.589844 252.03125 154.457031 255.632812 156.621094 C 259.230469 158.789062 260.363281 163.453125 258.199219 167.054688 C 243.027344 192.253906 224.855469 205.289062 207.089844 211.328125 Z M 207.089844 211.328125 " fill-opacity="1" fill-rule="nonzero"/></g></g></g><g clip-path="url(#0eb18be7ea)"><g clip-path="url(#f5221f9d54)"><g clip-path="url(#860f224b51)"><path fill="#ff2d01" d="M 168.300781 149.765625 C 171.699219 159.761719 166.371094 170.691406 156.308594 174.113281 C 146.3125 177.511719 135.382812 172.183594 131.960938 162.121094 C 128.539062 152.054688 133.890625 141.195312 143.953125 137.773438 C 154.019531 134.351562 164.902344 139.769531 168.300781 149.765625 Z M 209.203125 115.589844 C 199.207031 118.988281 193.789062 129.871094 197.210938 139.9375 C 200.632812 150 211.492188 155.351562 221.558594 151.929688 C 231.554688 148.53125 236.972656 137.648438 233.550781 127.582031 C 230.128906 117.519531 219.199219 112.191406 209.203125 115.589844 Z M 209.203125 115.589844 " fill-opacity="1" fill-rule="nonzero"/></g></g></g></svg>