<svg xmlns="http://www.w3.org/2000/svg" xmlns:xlink="http://www.w3.org/1999/xlink" width="500" zoomAndPan="magnify" viewBox="0 0 375 374.999991" height="500" preserveAspectRatio="xMidYMid meet" version="1.0"><defs><clipPath id="cc2931be4a"><path d="M 41 20 L 334 20 L 334 312 L 41 312 Z M 41 20 " clip-rule="nonzero"/></clipPath><clipPath id="8fbd07bbe2"><path d="M 109.597656 -42.332031 L 396.171875 88.4375 L 265.402344 375.011719 L -21.171875 244.242188 Z M 109.597656 -42.332031 " clip-rule="nonzero"/></clipPath><clipPath id="e4bd55dfe7"><path d="M 109.597656 -42.332031 L 396.171875 88.4375 L 265.402344 375.011719 L -21.171875 244.242188 Z M 109.597656 -42.332031 " clip-rule="nonzero"/></clipPath><clipPath id="e32371d154"><path d="M 127 107 L 262 107 L 262 197 L 127 197 Z M 127 107 " clip-rule="nonzero"/></clipPath><clipPath id="e4784a09b2"><path d="M 109.597656 -42.332031 L 396.171875 88.4375 L 265.402344 375.011719 L -21.171875 244.242188 Z M 109.597656 -42.332031 " clip-rule="nonzero"/></clipPath><clipPath id="cc53cce6b3"><path d="M 109.597656 -42.332031 L 396.171875 88.4375 L 265.402344 375.011719 L -21.171875 244.242188 Z M 109.597656 -42.332031 " clip-rule="nonzero"/></clipPath><clipPath id="efc5dfe2f3"><path d="M 93 133 L 268 133 L 268 230 L 93 230 Z M 93 133 " clip-rule="nonzero"/></clipPath><clipPath id="17c3ace233"><path d="M 109.597656 -42.332031 L 396.171875 88.4375 L 265.402344 375.011719 L -21.171875 244.242188 Z M 109.597656 -42.332031 " clip-rule="nonzero"/></clipPath><clipPath id="4d15dbf5bf"><path d="M 109.597656 -42.332031 L 396.171875 88.4375 L 265.402344 375.011719 L -21.171875 244.242188 Z M 109.597656 -42.332031 " clip-rule="nonzero"/></clipPath><clipPath id="247e303506"><path d="M 137 117 L 251 117 L 251 186 L 137 186 Z M 137 117 " clip-rule="nonzero"/></clipPath><clipPath id="85f0b44699"><path d="M 109.597656 -42.332031 L 396.171875 88.4375 L 265.402344 375.011719 L -21.171875 244.242188 Z M 109.597656 -42.332031 " clip-rule="nonzero"/></clipPath><clipPath id="1dd14beb7d"><path d="M 109.597656 -42.332031 L 396.171875 88.4375 L 265.402344 375.011719 L -21.171875 244.242188 Z M 109.597656 -42.332031 " clip-rule="nonzero"/></clipPath><clipPath id="6193b08f10"><path d="M 155 154 L 217 154 L 217 194 L 155 194 Z M 155 154 " clip-rule="nonzero"/></clipPath><clipPath id="53ac7bc310"><path d="M 109.597656 -42.332031 L 396.171875 88.4375 L 265.402344 375.011719 L -21.171875 244.242188 Z M 109.597656 -42.332031 " clip-rule="nonzero"/></clipPath><clipPath id="0cddaa219a"><path d="M 109.597656 -42.332031 L 396.171875 88.4375 L 265.402344 375.011719 L -21.171875 244.242188 Z M 109.597656 -42.332031 " clip-rule="nonzero"/></clipPath></defs><g clip-path="url(#cc2931be4a)"><g clip-path="url(#8fbd07bbe2)"><g clip-path="url(#e4bd55dfe7)"><path fill="#05a552" d="M 322.960938 233.976562 L 141.523438 310.617188 C 133.113281 314.175781 123.410156 310.203125 119.851562 301.792969 L 43.214844 120.355469 C 39.65625 111.945312 43.625 102.246094 52.035156 98.6875 L 233.472656 22.050781 C 241.882812 18.492188 251.585938 22.460938 255.144531 30.871094 L 331.78125 212.308594 C 335.339844 220.71875 331.371094 230.421875 322.960938 233.976562 Z M 322.960938 233.976562 " fill-opacity="1" fill-rule="nonzero"/></g></g></g><g clip-path="url(#e32371d154)"><g clip-path="url(#e4784a09b2)"><g clip-path="url(#cc53cce6b3)"><path fill="#ffffff" d="M 178.761719 145.457031 C 172.542969 159.089844 156.488281 165.03125 142.921875 158.839844 C 129.351562 152.648438 123.347656 136.566406 129.539062 122.996094 C 135.730469 109.429688 151.8125 103.425781 165.382812 109.617188 C 178.949219 115.808594 184.984375 131.828125 178.761719 145.457031 Z M 245.464844 144.480469 C 231.835938 138.261719 215.816406 144.292969 209.625 157.863281 C 203.433594 171.429688 209.4375 187.511719 223.003906 193.703125 C 236.574219 199.894531 252.65625 193.890625 258.847656 180.324219 C 265.039062 166.753906 259.097656 150.703125 245.464844 144.480469 Z M 245.464844 144.480469 " fill-opacity="1" fill-rule="nonzero"/></g></g></g><g clip-path="url(#efc5dfe2f3)"><g clip-path="url(#17c3ace233)"><g clip-path="url(#4d15dbf5bf)"><path fill="#05a552" d="M 266.023438 219.738281 C 262.164062 228.195312 252.238281 231.898438 243.78125 228.042969 C 235.324219 224.183594 231.621094 214.257812 235.480469 205.800781 C 239.335938 197.34375 249.261719 193.640625 257.71875 197.5 C 266.140625 201.265625 269.878906 211.28125 266.023438 219.738281 Z M 117.398438 135.070312 C 108.941406 131.210938 99.015625 134.914062 95.15625 143.371094 C 91.300781 151.828125 95.003906 161.753906 103.460938 165.613281 C 111.917969 169.472656 121.84375 165.765625 125.699219 157.308594 C 129.558594 148.851562 125.855469 138.925781 117.398438 135.070312 Z M 117.398438 135.070312 " fill-opacity="1" fill-rule="nonzero"/></g></g></g><g clip-path="url(#247e303506)"><g clip-path="url(#85f0b44699)"><g clip-path="url(#1dd14beb7d)"><path fill="#ffb72c" d="M 169.171875 141.082031 C 165.398438 149.347656 155.566406 153.019531 147.296875 149.246094 C 139.03125 145.472656 135.359375 135.640625 139.132812 127.375 C 142.90625 119.105469 152.738281 115.4375 161.003906 119.207031 C 169.273438 122.980469 172.972656 132.75 169.171875 141.082031 Z M 241.089844 154.074219 C 232.820312 150.300781 222.988281 153.972656 219.214844 162.238281 C 215.445312 170.507812 219.113281 180.339844 227.382812 184.113281 C 235.648438 187.882812 245.480469 184.214844 249.253906 175.945312 C 253.027344 167.679688 249.355469 157.847656 241.089844 154.074219 Z M 241.089844 154.074219 " fill-opacity="1" fill-rule="nonzero"/></g></g></g><g clip-path="url(#6193b08f10)"><g clip-path="url(#53ac7bc310)"><g clip-path="url(#0cddaa219a)"><path fill="#ffb72c" d="M 177.589844 190.136719 C 177.019531 189.875 176.453125 189.617188 175.914062 189.296875 C 160.257812 181.160156 155.636719 163.726562 155.421875 163.019531 C 154.523438 159.480469 156.65625 155.804688 160.195312 154.902344 C 163.730469 154 167.410156 156.136719 168.3125 159.671875 C 168.414062 159.949219 171.800781 172.246094 182.109375 177.558594 C 188.90625 181.042969 197.4375 180.894531 207.636719 177.085938 C 211.128906 175.78125 214.917969 177.507812 216.21875 181 C 217.523438 184.492188 215.796875 188.28125 212.304688 189.585938 C 199.226562 194.519531 187.558594 194.6875 177.589844 190.136719 Z M 177.589844 190.136719 " fill-opacity="1" fill-rule="nonzero"/></g></g></g></svg>