<svg xmlns="http://www.w3.org/2000/svg" xmlns:xlink="http://www.w3.org/1999/xlink" width="500" zoomAndPan="magnify" viewBox="0 0 375 374.999991" height="500" preserveAspectRatio="xMidYMid meet" version="1.0"><defs><clipPath id="88a0b20756"><path d="M 42 31 L 342 31 L 342 332 L 42 332 Z M 42 31 " clip-rule="nonzero"/></clipPath><clipPath id="8c62ec7aa8"><path d="M -6.542969 59.96875 L 313.554688 -17.121094 L 390.820312 303.703125 L 70.722656 380.796875 Z M -6.542969 59.96875 " clip-rule="nonzero"/></clipPath><clipPath id="53865287d6"><path d="M -6.542969 59.96875 L 313.554688 -17.121094 L 390.820312 303.703125 L 70.722656 380.796875 Z M -6.542969 59.96875 " clip-rule="nonzero"/></clipPath><clipPath id="908d1f596b"><path d="M 96 100 L 276 100 L 276 210 L 96 210 Z M 96 100 " clip-rule="nonzero"/></clipPath><clipPath id="57fc2832f5"><path d="M -6.542969 59.96875 L 313.554688 -17.121094 L 390.820312 303.703125 L 70.722656 380.796875 Z M -6.542969 59.96875 " clip-rule="nonzero"/></clipPath><clipPath id="23cf37df5b"><path d="M -6.542969 59.96875 L 313.554688 -17.121094 L 390.820312 303.703125 L 70.722656 380.796875 Z M -6.542969 59.96875 " clip-rule="nonzero"/></clipPath><clipPath id="4602ba2bde"><path d="M 113 117 L 259 117 L 259 193 L 113 193 Z M 113 117 " clip-rule="nonzero"/></clipPath><clipPath id="b190c5a8b4"><path d="M -6.542969 59.96875 L 313.554688 -17.121094 L 390.820312 303.703125 L 70.722656 380.796875 Z M -6.542969 59.96875 " clip-rule="nonzero"/></clipPath><clipPath id="f264373ddd"><path d="M -6.542969 59.96875 L 313.554688 -17.121094 L 390.820312 303.703125 L 70.722656 380.796875 Z M -6.542969 59.96875 " clip-rule="nonzero"/></clipPath><clipPath id="d1ca7e4b10"><path d="M 73 156 L 323 156 L 323 257 L 73 257 Z M 73 156 " clip-rule="nonzero"/></clipPath><clipPath id="ffe0d918fe"><path d="M -6.542969 59.96875 L 313.554688 -17.121094 L 390.820312 303.703125 L 70.722656 380.796875 Z M -6.542969 59.96875 " clip-rule="nonzero"/></clipPath><clipPath id="315b1d4a9d"><path d="M -6.542969 59.96875 L 313.554688 -17.121094 L 390.820312 303.703125 L 70.722656 380.796875 Z M -6.542969 59.96875 " clip-rule="nonzero"/></clipPath><clipPath id="0df2c8727c"><path d="M 120 188 L 282 188 L 282 253 L 120 253 Z M 120 188 " clip-rule="nonzero"/></clipPath><clipPath id="da014273ca"><path d="M -6.542969 59.96875 L 313.554688 -17.121094 L 390.820312 303.703125 L 70.722656 380.796875 Z M -6.542969 59.96875 " clip-rule="nonzero"/></clipPath><clipPath id="eae841e7e9"><path d="M -6.542969 59.96875 L 313.554688 -17.121094 L 390.820312 303.703125 L 70.722656 380.796875 Z M -6.542969 59.96875 " clip-rule="nonzero"/></clipPath></defs><g clip-path="url(#88a0b20756)"><g clip-path="url(#8c62ec7aa8)"><g clip-path="url(#53865287d6)"><path fill="#ffb72c" d="M 270.199219 53.726562 C 340.84375 96.996094 363.097656 189.402344 319.898438 260.089844 C 276.699219 330.777344 184.472656 352.988281 113.828125 309.71875 C 43.183594 266.449219 20.929688 174.042969 64.128906 103.355469 C 107.328125 32.667969 199.542969 10.398438 270.199219 53.726562 Z M 270.199219 53.726562 " fill-opacity="1" fill-rule="nonzero"/></g></g></g><g clip-path="url(#908d1f596b)"><g clip-path="url(#57fc2832f5)"><g clip-path="url(#23cf37df5b)"><path fill="#ffffff" d="M 181.695312 156.40625 C 187.308594 179.710938 172.976562 203.136719 149.671875 208.746094 C 126.367188 214.359375 102.945312 200.03125 97.332031 176.726562 C 91.71875 153.421875 106.050781 129.996094 129.355469 124.386719 C 152.660156 118.773438 176.082031 133.101562 181.695312 156.40625 Z M 221.640625 102.160156 C 198.335938 107.773438 184.007812 131.195312 189.617188 154.5 C 195.230469 177.804688 218.65625 192.132812 241.960938 186.523438 C 265.265625 180.910156 279.59375 157.488281 273.980469 134.183594 C 268.371094 110.878906 244.945312 96.546875 221.640625 102.160156 Z M 221.640625 102.160156 " fill-opacity="1" fill-rule="nonzero"/></g></g></g><g clip-path="url(#4602ba2bde)"><g clip-path="url(#b190c5a8b4)"><g clip-path="url(#f264373ddd)"><path fill="#0395ff" d="M 165.265625 160.363281 C 168.6875 174.582031 159.917969 188.835938 145.761719 192.246094 C 131.601562 195.65625 117.289062 186.898438 113.878906 172.738281 C 110.46875 158.582031 119.226562 144.269531 133.382812 140.859375 C 147.542969 137.449219 161.839844 146.148438 165.265625 160.363281 Z M 225.613281 118.648438 C 211.398438 122.070312 202.699219 136.371094 206.105469 150.527344 C 209.515625 164.6875 223.832031 173.445312 237.988281 170.035156 C 252.144531 166.625 260.902344 152.308594 257.492188 138.152344 C 254.085938 123.996094 239.828125 115.222656 225.613281 118.648438 Z M 225.613281 118.648438 " fill-opacity="1" fill-rule="nonzero"/></g></g></g><g clip-path="url(#d1ca7e4b10)"><g clip-path="url(#ffe0d918fe)"><g clip-path="url(#315b1d4a9d)"><path fill="#ceef32" d="M 321.898438 176.761719 C 325.378906 191.210938 316.488281 205.742188 302.039062 209.222656 C 287.589844 212.703125 273.058594 203.8125 269.582031 189.363281 C 266.101562 174.914062 274.992188 160.382812 289.441406 156.902344 C 303.890625 153.421875 318.417969 162.3125 321.898438 176.761719 Z M 94.015625 203.90625 C 79.566406 207.386719 70.675781 221.917969 74.15625 236.367188 C 77.636719 250.816406 92.167969 259.703125 106.617188 256.226562 C 121.066406 252.746094 129.957031 238.214844 126.476562 223.765625 C 123.007812 209.375 108.464844 200.425781 94.015625 203.90625 Z M 94.015625 203.90625 " fill-opacity="1" fill-rule="nonzero"/></g></g></g><g clip-path="url(#0df2c8727c)"><g clip-path="url(#da014273ca)"><g clip-path="url(#eae841e7e9)"><path fill="#0395ff" d="M 280.453125 199.441406 C 224.492188 275.238281 154.789062 252.265625 124.53125 236.933594 C 118.769531 234.003906 119.804688 225.496094 126.09375 223.980469 L 273.265625 188.535156 C 279.542969 186.964844 284.304688 194.199219 280.453125 199.441406 Z M 280.453125 199.441406 " fill-opacity="1" fill-rule="nonzero"/></g></g></g></svg>