<svg xmlns="http://www.w3.org/2000/svg" xmlns:xlink="http://www.w3.org/1999/xlink" width="500" zoomAndPan="magnify" viewBox="0 0 375 374.999991" height="500" preserveAspectRatio="xMidYMid meet" version="1.0"><defs><clipPath id="9678fbe4e3"><path d="M 23 70.765625 L 352 70.765625 L 352 245.515625 L 23 245.515625 Z M 23 70.765625 " clip-rule="nonzero"/></clipPath></defs><g clip-path="url(#9678fbe4e3)"><path fill="#ceef32" d="M 73.839844 245.5625 C 37.410156 245.5625 12.863281 208.082031 27.632812 174.804688 C 54.742188 113.496094 116.113281 70.765625 187.460938 70.765625 C 258.8125 70.765625 320.183594 113.496094 347.359375 174.804688 C 362.128906 208.082031 337.578125 245.5625 301.148438 245.5625 Z M 73.839844 245.5625 " fill-opacity="1" fill-rule="nonzero"/></g><path fill="#ffffff" d="M 184.835938 140.605469 C 184.835938 156.164062 172.234375 168.765625 156.679688 168.765625 C 141.121094 168.765625 128.519531 156.164062 128.519531 140.605469 C 128.519531 125.050781 141.121094 112.449219 156.679688 112.449219 C 172.234375 112.449219 184.835938 125.050781 184.835938 140.605469 Z M 218.3125 112.449219 C 202.757812 112.449219 190.152344 125.050781 190.152344 140.605469 C 190.152344 156.164062 202.757812 168.765625 218.3125 168.765625 C 233.871094 168.765625 246.472656 156.164062 246.472656 140.605469 C 246.472656 125.050781 233.871094 112.449219 218.3125 112.449219 Z M 218.3125 112.449219 " fill-opacity="1" fill-rule="nonzero"/><path fill="#0395ff" d="M 187.003906 205 C 173.285156 205 162.191406 193.839844 162.191406 180.1875 C 162.191406 166.46875 173.351562 155.375 187.003906 155.375 C 200.722656 155.375 211.816406 166.535156 211.816406 180.1875 C 211.816406 193.839844 200.722656 205 187.003906 205 Z M 187.003906 168.898438 C 180.765625 168.898438 175.714844 173.953125 175.714844 180.1875 C 175.714844 186.421875 180.765625 191.476562 187.003906 191.476562 C 193.238281 191.476562 198.292969 186.421875 198.292969 180.1875 C 198.292969 173.953125 193.238281 168.898438 187.003906 168.898438 Z M 187.003906 168.898438 " fill-opacity="1" fill-rule="nonzero"/><path fill="#ceef32" d="M 270.300781 174.804688 C 270.300781 184.453125 262.488281 192.332031 252.773438 192.332031 C 243.125 192.332031 235.246094 184.519531 235.246094 174.804688 C 235.246094 165.089844 243.058594 157.277344 252.773438 157.277344 C 262.421875 157.277344 270.300781 165.15625 270.300781 174.804688 Z M 122.21875 157.277344 C 112.566406 157.277344 104.691406 165.089844 104.691406 174.804688 C 104.691406 184.519531 112.503906 192.332031 122.21875 192.332031 C 131.933594 192.332031 139.742188 184.519531 139.742188 174.804688 C 139.742188 165.089844 131.867188 157.277344 122.21875 157.277344 Z M 122.21875 157.277344 " fill-opacity="1" fill-rule="nonzero"/><path fill="#0395ff" d="M 173.808594 140.605469 C 173.808594 150.125 166.128906 157.804688 156.613281 157.804688 C 147.09375 157.804688 139.414062 150.125 139.414062 140.605469 C 139.414062 131.089844 147.09375 123.410156 156.613281 123.410156 C 166.128906 123.410156 173.808594 131.089844 173.808594 140.605469 Z M 218.3125 123.410156 C 208.796875 123.410156 201.117188 131.089844 201.117188 140.605469 C 201.117188 150.125 208.796875 157.804688 218.3125 157.804688 C 227.832031 157.804688 235.511719 150.125 235.511719 140.605469 C 235.511719 131.089844 227.832031 123.410156 218.3125 123.410156 Z M 218.3125 123.410156 " fill-opacity="1" fill-rule="nonzero"/></svg>